<?xml version="1.0" encoding="UTF-8"?>
<svg width="66px" height="69px" viewBox="0 0 66 69" version="1.1" xmlns="http://www.w3.org/2000/svg" xmlns:xlink="http://www.w3.org/1999/xlink">
    <!-- Generator: Sketch 42 (36781) - http://www.bohemiancoding.com/sketch -->
    <title>Untitled</title>
    <desc>Created with Sketch.</desc>
    <defs></defs>
    <g id="Page-1" stroke="none" stroke-width="1" fill="none" fill-rule="evenodd">
        <g id="Group" transform="translate(1.000000, 1.000000)" stroke-width="1.6" stroke="#D9D7D7">
            <g id="Shape">
                <g>
                    <path d="M25.924,5.622 L32.174,0.642 L38.422,5.622 M14.602,11.135 L18.042,3.912 L25.834,5.644 M6.838,21.064 L6.768,13.064 L14.533,11.194"></path>
                    <path d="M4.2,33.398 L0.64,26.238 L6.8,21.145 M25.924,61.175 L32.174,66.155 L38.422,61.175"></path>
                    <path d="M14.602,55.664 L18.042,62.886 L25.834,61.156 L14.602,55.664 Z M6.838,45.736 L6.768,53.736 L14.533,55.606 L6.838,45.736 Z M4.2,33.4 L0.64,40.56 L6.8,45.65 L4.2,33.4 Z M49.743,11.135 L46.305,3.912 L38.511,5.644 L49.743,11.135 Z M57.511,21.064 L57.581,13.064 L49.815,11.194 L57.511,21.064 Z M60.144,33.4 L63.704,26.238 L57.544,21.146 L60.144,33.4 Z M49.744,55.664 L46.304,62.886 L38.511,61.156 L49.744,55.664 Z M57.511,45.736 L57.581,53.736 L49.815,55.606 L57.511,45.736 Z M60.144,33.4 L63.704,40.56 L57.544,45.65 L60.144,33.4 Z M46.92,25.404 L28.065,44.3 L20.065,36.285 L22.629,33.377 L28.062,38.825 L44.352,22.495 L46.92,25.404 Z"></path>
                </g>
            </g>
        </g>
    </g>
</svg>