<svg xmlns="http://www.w3.org/2000/svg" width="66" height="68" viewBox="0 0 66 68">
  <g fill="none" fill-rule="evenodd" stroke-linecap="round" stroke-linejoin="round">
    <g stroke="#01AB6C" stroke-width="1.6">
      <g>
        <path d="M26.924 6.622l6.25-4.98 6.248 4.98m-23.82 5.513l3.44-7.223 7.792 1.732M7.838 22.064l-.07-8 7.765-1.87"/>
        <g>
          <path d="M5.2 34.398l-3.56-7.16 6.16-5.093m19.124 40.03l6.25 4.98 6.248-4.98"/>
        </g>
        <path d="M15.602 56.664l3.44 7.222 7.792-1.73M7.838 46.736l-.07 8 7.765 1.87M5.2 34.4l-3.56 7.16 6.16 5.09m42.943-34.515l-3.438-7.223-7.794 1.732m19 15.42l.07-8-7.766-1.87M61.144 34.4l3.56-7.162-6.16-5.092m-7.8 34.518l-3.44 7.222-7.793-1.73m19-15.42l.07 8-7.766 1.87M61.144 34.4l3.56 7.16-6.16 5.09M47.92 26.404L29.065 45.3l-8-8.015 2.564-2.908 5.433 5.448 16.29-16.33z"/>
      </g>
    </g>
  </g>
</svg>
