<?xml version="1.0" encoding="utf-8"?>
<!-- Generator: Adobe Illustrator 21.1.0, SVG Export Plug-In . SVG Version: 6.00 Build 0)  -->
<svg version="1.1" id="Layer_1" xmlns="http://www.w3.org/2000/svg" xmlns:xlink="http://www.w3.org/1999/xlink" x="0px" y="0px"
	 viewBox="0 0 95 45" style="enable-background:new 0 0 95 45;" xml:space="preserve">
<g>
	<path d="M59.1,27.8c-0.6,0-3,0.7-4.7,1.2c0.1-0.5,0.3-0.9,0.4-1.4c0.3-0.8,0.8-2,1.2-3.1c0.5-1.1,1-2.2,1-2.4
		c0-0.4-0.2-0.6-0.5-0.6c-0.3,0-1.2,1.2-1.8,1.8c-1.2,1.3-3.5,3.3-4.4,3.3c-0.5,0-0.7-0.2-0.7-1.2c0-0.8,0.2-2,0.6-3.1
		c0.4-1,1-1.8,1-2.2c0-0.3-0.4-0.5-0.7-0.5c-0.2,0-0.8,1-1.2,2l0,0c-1,1.1-2.7,3.2-3.8,3.2c-0.6,0-0.9-0.5-0.9-1.4
		c0-1.2,0.2-2.4,0.6-3.5l1.3-3.7c0.6-1.7,1.4-3.6,2-5.2c0-0.2-0.4-0.5-0.9-0.4c-0.5,0-0.8,0.5-1,1.1c-0.5,1.4-1.1,2.8-1.8,4.2
		c-1.3,2.7-2.8,5-4.6,7.3c-1.5,2-2.9,3.4-4.8,3.4c-1.2,0-1.7-1.1-1.9-2.5c2-0.2,4.3-1.8,4.3-3.7c0-0.8-0.7-1.6-1.7-1.6
		c-2.2,0-3.5,2.4-3.7,4.5c-0.7,0-1.5-0.3-2-0.9c-0.6-0.6-0.9-1.8-1.2-2.5l0,0c0-0.3-0.1-0.5-0.2-0.7c-0.2-0.3-0.8-0.1-0.8,0.2
		c-0.1,0.7,0.2,1.4,0.2,2.1c-0.1,1.5-0.4,3-1.2,4.2c-0.6,0.9-1.4,1.6-2.3,1.6c-0.6,0-0.9-0.6-0.9-1.2c0-1.1,0.3-2.2,0.6-3.4
		c0.3-1,0.8-2.2,1.1-3.2c0.1-0.2-0.5-0.5-0.6-0.4c-0.4,0.4-0.6,0.9-1,1.4c-0.9,0.8-1.7,1.3-2.5,1.8c-0.8,0.4-1.5,0.7-2.2,0.8
		c0.1-0.4,0.1-0.9,0.1-1.4c0-1.2-1.1-2.3-2.1-2.3c-1.4,0-2.5,1.2-3.2,2.2c-0.3,0.5-0.7,1.1-1,1.7c-1,1.3-2.3,2.9-3.3,3.9
		c-0.9,0.9-2.3,1.8-3.3,1.8c-0.6,0-0.9-0.3-0.9-0.9c0-0.9,0.9-3.3,1.6-5c0.5-1.3,0.9-2.6,1.4-3.9c1.7-0.6,3.4-1.6,5-2.6
		c2-1.4,3.3-3.1,3.3-4.6c0-1.1-1-2-2.7-2c-3.1,0-4.7,3.6-5.4,5.1c-0.5,1.2-1,2.3-1.4,3.4c-0.1,0-0.2,0.1-0.3,0.1
		c-2.2,0.7-4.4,1.3-6.8,1.9c-0.2,0.2,0,0.8,0.3,0.8c2.1-0.4,4.3-1,6.4-1.7c-0.4,0.9-0.7,1.9-1.1,2.8c-0.7,1.9-1.6,4.2-1.7,5.9
		c-0.1,1.1,0.8,2,2,2c1.4,0,3-1.1,4-2.1c0.8-0.7,1.4-1.4,2.1-2.2c0,1.5,0.8,2.2,1.9,2.2c1.4,0,2.6-1,3.6-2.3c0.5-0.7,0.9-1.3,1.2-2
		c0.9-0.1,1.6-0.4,2.6-0.8c0.6-0.3,1.1-0.6,1.8-1l0,0c-0.5,1.3-1,2.8-1,4.1c0,1.1,0.8,1.9,1.9,1.9c1.3,0,2.6-1.1,3.5-2.5
		c0.6-1,0.9-2.1,1.1-3.2c0.3,0.3,0.6,0.6,1,0.9c0.6,0.4,1.4,0.7,2.3,0.8c0.1,1.8,1,3.4,3.1,3.4c2.3,0,3.8-1.7,5.4-3.5
		c0.9-1.2,2.3-2.8,3.2-4.3h0c-0.3,1.1-0.7,3-0.7,4.1c0,1.2,0.7,2.2,1.9,2.2c1.1,0,2.2-1,3.3-2c-0.1,0.5-0.2,1-0.2,1.7
		c0,1.2,0.7,2,1.9,2c1.2,0,2.8-1,4.1-2.2l0,0l-1.2,4.1c-1.3,0.5-2.4,1.2-3.4,1.9c-1.6,1.2-2.7,2.4-2.7,3.6c0,0.9,0.7,1.6,1.8,1.6
		c1.4,0,2.9-1.3,3.7-3.1c0.5-1.2,1-2.4,1.4-3.6c1.7-0.6,5-1.4,5.1-1.6C59.4,28.2,59.4,27.8,59.1,27.8z M10.3,15.6
		c1-2.1,2.4-4.6,4.3-4.6c0.9,0,1.5,0.5,1.5,1.2c0,1.3-1.7,2.7-3.3,3.8c-1.1,0.7-2.2,1.3-3.4,1.8C9.7,17,10,16.3,10.3,15.6z
		 M17.8,20.3c0.6,0,0.8,0.6,0.8,1.2c0,0.5-0.1,1-0.4,1.5c-0.1,0-0.1,0-0.2,0c-0.8,0-1.6-0.6-2.1-1.3C16.4,21,17.1,20.3,17.8,20.3z
		 M17.3,24.6c-0.7,1.2-1.7,2.3-2.5,2.3c-0.5,0-0.8-0.5-0.7-1.1c0.1-0.8,0.5-2,1.1-3c0.1-0.1,0.1-0.2,0.2-0.3
		c0.5,0.7,1.4,1.1,2.5,1.2C17.6,24.1,17.5,24.4,17.3,24.6z M36,19.8c0.4,0,0.7,0.3,0.7,0.8c0,1.4-1.5,2.3-3.2,2.5
		C33.6,21.8,34.7,19.8,36,19.8z M51.7,33.5c-0.7,1.2-1.7,2.2-2.7,2.2c-0.6,0-0.9-0.4-0.9-0.8c0-0.9,1.1-2,2.2-2.8
		c0.8-0.6,1.7-1.2,2.8-1.8C52.7,31.4,52.3,32.4,51.7,33.5z"/>
	<path d="M93.7,27c-0.4,0.3-0.8,0.6-1.3,0.6c-0.8,0-1.2-0.9-1.2-1.6c0-1.2,0.3-2.5,0.7-3.7c0.1-0.3,0.2-0.6,0.2-0.7
		c0-0.3-0.5-0.5-0.8-0.4c-0.6,0.6-1.2,1.2-1.8,2.1c-0.9,1.3-2.7,3.1-3.6,3.1c-0.5,0-0.6-0.4-0.6-0.8c0-1.8,0.5-3.4,1.1-5
		c0.1-0.2-0.4-0.7-0.8-0.7c-0.4,0-1.6,1.4-2.4,2.1c-0.6,0.5-1.1,1-1.6,1.3c0-0.1,0-0.2,0-0.3c0-1.7-0.8-3-1.8-3
		c-1.5,0-2.4,1.7-2.9,2.7c0,0,0,0,0,0.1L72.3,28l1.8-9.2c0.1-0.4-0.4-1.1-0.7-1.1c-0.4,0-0.8,0.3-0.8,0.7l-0.1,0.5
		c-0.6,1.2-1.4,2.4-2.3,3.6c-1,1.5-2.4,3.2-3.4,3.2c-0.6,0-0.9-0.8-0.9-1.8c0-1.3,0.2-2.9,0.5-4.2c0.2-0.9,0.5-1.7,0.8-2.6
		c0.1-0.5-0.4-0.7-0.6-0.7c-0.7,0.2-1.8,4.7-1.8,7.3c0,1.8,0.7,3.1,2.2,3.1c1.5,0,3.8-2.9,5-5.3h0l-1.4,8.3c0,0,0,0.1,0,0.1l-4,4.1
		c-1.7,1.7-3,3.1-3,5c0,1.1,0.6,1.9,2.1,1.9c3.5,0.1,5.7-8,6.4-11.2l1.9-2l2.4-2.6c-0.1,0.6-0.2,1.2-0.2,1.8c0,0.8,0.6,1.8,1.5,1.8
		c0.9,0,2.3-1.3,3-2.6c0.3-0.6,0.6-1.1,0.8-1.6c0.9-0.4,2-1.1,3.2-2.3l0,0c-0.2,0.9-0.3,2.1-0.3,3c0,1.2,0.8,2.1,1.9,2.1
		c1.4,0,2.8-1.6,4-2.7l0,0c-0.1,0.6,0,1.4,0,1.8c0.2,1.1,0.9,1.9,2.1,1.9c0.8,0,1.3-0.4,1.7-1.1C94,27.2,93.9,26.9,93.7,27z
		 M65.6,39.9c-0.8,0-1.1-0.5-1.1-0.9c0-1.5,1.5-2.9,2.9-4.4l2.7-2.8C69.2,34.8,67.4,39.9,65.6,39.9z M79.7,21c0.5,0,1,0.7,1,1.8
		c0,0.4,0,0.8-0.2,1.2c-0.2,0.1-0.4,0.1-0.5,0.1c-1,0-1.1-1.5-1.1-2.6C79.1,21.2,79.4,21,79.7,21z M79.7,25.7
		c-0.6,1-1.4,2.2-2.2,2.2c-0.4,0-0.5-0.4-0.5-0.8c0-1.2,0.6-2.8,1.1-3.9c0,0,0,0,0-0.1c0.3,0.9,0.8,1.6,1.8,1.7c0.1,0,0.2,0,0.3,0
		C80.1,25.1,79.9,25.4,79.7,25.7z"/>
</g>
<g>
	<path d="M59.1,26.8c-0.6,0-3,0.7-4.7,1.2c0.1-0.5,0.3-0.9,0.4-1.4c0.3-0.8,0.8-2,1.2-3.1c0.5-1.1,1-2.2,1-2.4
		c0-0.4-0.2-0.6-0.5-0.6c-0.3,0-1.2,1.2-1.8,1.8c-1.2,1.3-3.5,3.3-4.4,3.3c-0.5,0-0.7-0.2-0.7-1.2c0-0.8,0.2-2,0.6-3.1
		c0.4-1,1-1.8,1-2.2c0-0.3-0.4-0.5-0.7-0.5c-0.2,0-0.8,1-1.2,2l0,0c-1,1.1-2.7,3.2-3.8,3.2c-0.6,0-0.9-0.5-0.9-1.4
		c0-1.2,0.2-2.4,0.6-3.5l1.3-3.7c0.6-1.7,1.4-3.6,2-5.2c0-0.2-0.4-0.5-0.9-0.4c-0.5,0-0.8,0.5-1,1.1c-0.5,1.4-1.1,2.8-1.8,4.2
		c-1.3,2.7-2.8,5-4.6,7.3c-1.5,2-2.9,3.4-4.8,3.4c-1.2,0-1.7-1.1-1.9-2.5c2-0.2,4.3-1.8,4.3-3.7c0-0.8-0.7-1.6-1.7-1.6
		c-2.2,0-3.5,2.4-3.7,4.5c-0.7,0-1.5-0.3-2-0.9c-0.6-0.6-0.9-1.8-1.2-2.5l0,0c0-0.3-0.1-0.5-0.2-0.7c-0.2-0.3-0.8-0.1-0.8,0.2
		c-0.1,0.7,0.2,1.4,0.2,2.1c-0.1,1.5-0.4,3-1.2,4.2c-0.6,0.9-1.4,1.6-2.3,1.6c-0.6,0-0.9-0.6-0.9-1.2c0-1.1,0.3-2.2,0.6-3.4
		c0.3-1,0.8-2.2,1.1-3.2c0.1-0.2-0.5-0.5-0.6-0.4c-0.4,0.4-0.6,0.9-1,1.4c-0.9,0.8-1.7,1.3-2.5,1.8c-0.8,0.4-1.5,0.7-2.2,0.8
		c0.1-0.4,0.1-0.9,0.1-1.4c0-1.2-1.1-2.3-2.1-2.3c-1.4,0-2.5,1.2-3.2,2.2c-0.3,0.5-0.7,1.1-1,1.7c-1,1.3-2.3,2.9-3.3,3.9
		c-0.9,0.9-2.3,1.8-3.3,1.8c-0.6,0-0.9-0.3-0.9-0.9c0-0.9,0.9-3.3,1.6-5c0.5-1.3,0.9-2.6,1.4-3.9c1.7-0.6,3.4-1.6,5-2.6
		c2-1.4,3.3-3.1,3.3-4.6c0-1.1-1-2-2.7-2c-3.1,0-4.7,3.6-5.4,5.1c-0.5,1.2-1,2.3-1.4,3.4c-0.1,0-0.2,0.1-0.3,0.1
		c-2.2,0.7-4.4,1.3-6.8,1.9c-0.2,0.2,0,0.8,0.3,0.8c2.1-0.4,4.3-1,6.4-1.7c-0.4,0.9-0.7,1.9-1.1,2.8c-0.7,1.9-1.6,4.2-1.7,5.9
		c-0.1,1.1,0.8,2,2,2c1.4,0,3-1.1,4-2.1c0.8-0.7,1.4-1.4,2.1-2.2c0,1.5,0.8,2.2,1.9,2.2c1.4,0,2.6-1,3.6-2.3c0.5-0.7,0.9-1.3,1.2-2
		c0.9-0.1,1.6-0.4,2.6-0.8c0.6-0.3,1.1-0.6,1.8-1l0,0c-0.5,1.3-1,2.8-1,4.1c0,1.1,0.8,1.9,1.9,1.9c1.3,0,2.6-1.1,3.5-2.5
		c0.6-1,0.9-2.1,1.1-3.2c0.3,0.3,0.6,0.6,1,0.9c0.6,0.4,1.4,0.7,2.3,0.8c0.1,1.8,1,3.4,3.1,3.4c2.3,0,3.8-1.7,5.4-3.5
		c0.9-1.2,2.3-2.8,3.2-4.3h0c-0.3,1.1-0.7,3-0.7,4.1c0,1.2,0.7,2.2,1.9,2.2c1.1,0,2.2-1,3.3-2c-0.1,0.5-0.2,1-0.2,1.7
		c0,1.2,0.7,2,1.9,2c1.2,0,2.8-1,4.1-2.2l0,0l-1.2,4.1c-1.3,0.5-2.4,1.2-3.4,1.9c-1.6,1.2-2.7,2.4-2.7,3.6c0,0.9,0.7,1.6,1.8,1.6
		c1.4,0,2.9-1.3,3.7-3.1c0.5-1.2,1-2.4,1.4-3.6c1.7-0.6,5-1.4,5.1-1.6C59.4,27.2,59.4,26.8,59.1,26.8z M10.3,14.6
		c1-2.1,2.4-4.6,4.3-4.6c0.9,0,1.5,0.5,1.5,1.2c0,1.3-1.7,2.7-3.3,3.8c-1.1,0.7-2.2,1.3-3.4,1.8C9.7,16,10,15.3,10.3,14.6z
		 M17.8,19.3c0.6,0,0.8,0.6,0.8,1.2c0,0.5-0.1,1-0.4,1.5c-0.1,0-0.1,0-0.2,0c-0.8,0-1.6-0.6-2.1-1.3C16.4,20,17.1,19.3,17.8,19.3z
		 M17.3,23.6c-0.7,1.2-1.7,2.3-2.5,2.3c-0.5,0-0.8-0.5-0.7-1.1c0.1-0.8,0.5-2,1.1-3c0.1-0.1,0.1-0.2,0.2-0.3
		c0.5,0.7,1.4,1.1,2.5,1.2C17.6,23.1,17.5,23.4,17.3,23.6z M36,18.8c0.4,0,0.7,0.3,0.7,0.8c0,1.4-1.5,2.3-3.2,2.5
		C33.6,20.8,34.7,18.8,36,18.8z M51.7,32.5c-0.7,1.2-1.7,2.2-2.7,2.2c-0.6,0-0.9-0.4-0.9-0.8c0-0.9,1.1-2,2.2-2.8
		c0.8-0.6,1.7-1.2,2.8-1.8C52.7,30.4,52.3,31.4,51.7,32.5z"/>
	<path d="M93.7,26c-0.4,0.3-0.8,0.6-1.3,0.6c-0.8,0-1.2-0.9-1.2-1.6c0-1.2,0.3-2.5,0.7-3.7c0.1-0.3,0.2-0.6,0.2-0.7
		c0-0.3-0.5-0.5-0.8-0.4c-0.6,0.6-1.2,1.2-1.8,2.1c-0.9,1.3-2.7,3.1-3.6,3.1c-0.5,0-0.6-0.4-0.6-0.8c0-1.8,0.5-3.4,1.1-5
		c0.1-0.2-0.4-0.7-0.8-0.7c-0.4,0-1.6,1.4-2.4,2.1c-0.6,0.5-1.1,1-1.6,1.3c0-0.1,0-0.2,0-0.3c0-1.7-0.8-3-1.8-3
		c-1.5,0-2.4,1.7-2.9,2.7c0,0,0,0,0,0.1L72.3,27l1.8-9.2c0.1-0.4-0.4-1.1-0.7-1.1c-0.4,0-0.8,0.3-0.8,0.7l-0.1,0.5
		c-0.6,1.2-1.4,2.4-2.3,3.6c-1,1.5-2.4,3.2-3.4,3.2c-0.6,0-0.9-0.8-0.9-1.8c0-1.3,0.2-2.9,0.5-4.2c0.2-0.9,0.5-1.7,0.8-2.6
		c0.1-0.5-0.4-0.7-0.6-0.7c-0.7,0.2-1.8,4.7-1.8,7.3c0,1.8,0.7,3.1,2.2,3.1c1.5,0,3.8-2.9,5-5.3h0l-1.4,8.3c0,0,0,0.1,0,0.1l-4,4.1
		c-1.7,1.7-3,3.1-3,5c0,1.1,0.6,1.9,2.1,1.9c3.5,0.1,5.7-8,6.4-11.2l1.9-2l2.4-2.6c-0.1,0.6-0.2,1.2-0.2,1.8c0,0.8,0.6,1.8,1.5,1.8
		c0.9,0,2.3-1.3,3-2.6c0.3-0.6,0.6-1.1,0.8-1.6c0.9-0.4,2-1.1,3.2-2.3l0,0c-0.2,0.9-0.3,2.1-0.3,3c0,1.2,0.8,2.1,1.9,2.1
		c1.4,0,2.8-1.6,4-2.7l0,0c-0.1,0.6,0,1.4,0,1.8c0.2,1.1,0.9,1.9,2.1,1.9c0.8,0,1.3-0.4,1.7-1.1C94,26.2,93.9,25.9,93.7,26z
		 M65.6,38.9c-0.8,0-1.1-0.5-1.1-0.9c0-1.5,1.5-2.9,2.9-4.4l2.7-2.8C69.2,33.8,67.4,38.9,65.6,38.9z M79.7,20c0.5,0,1,0.7,1,1.8
		c0,0.4,0,0.8-0.2,1.2c-0.2,0.1-0.4,0.1-0.5,0.1c-1,0-1.1-1.5-1.1-2.6C79.1,20.2,79.4,20,79.7,20z M79.7,24.7
		c-0.6,1-1.4,2.2-2.2,2.2c-0.4,0-0.5-0.4-0.5-0.8c0-1.2,0.6-2.8,1.1-3.9c0,0,0,0,0-0.1c0.3,0.9,0.8,1.6,1.8,1.7c0.1,0,0.2,0,0.3,0
		C80.1,24.1,79.9,24.4,79.7,24.7z"/>
</g>
<g>
	<path d="M60.1,26.8c-0.6,0-3,0.7-4.7,1.2c0.1-0.5,0.3-0.9,0.4-1.4c0.3-0.8,0.8-2,1.2-3.1c0.5-1.1,1-2.2,1-2.4
		c0-0.4-0.2-0.6-0.5-0.6c-0.3,0-1.2,1.2-1.8,1.8c-1.2,1.3-3.5,3.3-4.4,3.3c-0.5,0-0.7-0.2-0.7-1.2c0-0.8,0.2-2,0.6-3.1
		c0.4-1,1-1.8,1-2.2c0-0.3-0.4-0.5-0.7-0.5c-0.2,0-0.8,1-1.2,2l0,0c-1,1.1-2.7,3.2-3.8,3.2c-0.6,0-0.9-0.5-0.9-1.4
		c0-1.2,0.2-2.4,0.6-3.5l1.3-3.7c0.6-1.7,1.4-3.6,2-5.2c0-0.2-0.4-0.5-0.9-0.4c-0.5,0-0.8,0.5-1,1.1c-0.5,1.4-1.1,2.8-1.8,4.2
		c-1.3,2.7-2.8,5-4.6,7.3c-1.5,2-2.9,3.4-4.8,3.4c-1.2,0-1.7-1.1-1.9-2.5c2-0.2,4.3-1.8,4.3-3.7c0-0.8-0.7-1.6-1.7-1.6
		c-2.2,0-3.5,2.4-3.7,4.5c-0.7,0-1.5-0.3-2-0.9c-0.6-0.6-0.9-1.8-1.2-2.5l0,0c0-0.3-0.1-0.5-0.2-0.7c-0.2-0.3-0.8-0.1-0.8,0.2
		c-0.1,0.7,0.2,1.4,0.2,2.1c-0.1,1.5-0.4,3-1.2,4.2c-0.6,0.9-1.4,1.6-2.3,1.6c-0.6,0-0.9-0.6-0.9-1.2c0-1.1,0.3-2.2,0.6-3.4
		c0.3-1,0.8-2.2,1.1-3.2c0.1-0.2-0.5-0.5-0.6-0.4c-0.4,0.4-0.6,0.9-1,1.4c-0.9,0.8-1.7,1.3-2.5,1.8c-0.8,0.4-1.5,0.7-2.2,0.8
		c0.1-0.4,0.1-0.9,0.1-1.4c0-1.2-1.1-2.3-2.1-2.3c-1.4,0-2.5,1.2-3.2,2.2c-0.3,0.5-0.7,1.1-1,1.7c-1,1.3-2.3,2.9-3.3,3.9
		c-0.9,0.9-2.3,1.8-3.3,1.8c-0.6,0-0.9-0.3-0.9-0.9c0-0.9,0.9-3.3,1.6-5c0.5-1.3,0.9-2.6,1.4-3.9c1.7-0.6,3.4-1.6,5-2.6
		c2-1.4,3.3-3.1,3.3-4.6c0-1.1-1-2-2.7-2c-3.1,0-4.7,3.6-5.4,5.1c-0.5,1.2-1,2.3-1.4,3.4c-0.1,0-0.2,0.1-0.3,0.1
		c-2.2,0.7-4.4,1.3-6.8,1.9c-0.2,0.2,0,0.8,0.3,0.8c2.1-0.4,4.3-1,6.4-1.7c-0.4,0.9-0.7,1.9-1.1,2.8c-0.7,1.9-1.6,4.2-1.7,5.9
		c-0.1,1.1,0.8,2,2,2c1.4,0,3-1.1,4-2.1c0.8-0.7,1.4-1.4,2.1-2.2c0,1.5,0.8,2.2,1.9,2.2c1.4,0,2.6-1,3.6-2.3c0.5-0.7,0.9-1.3,1.2-2
		c0.9-0.1,1.6-0.4,2.6-0.8c0.6-0.3,1.1-0.6,1.8-1l0,0c-0.5,1.3-1,2.8-1,4.1c0,1.1,0.8,1.9,1.9,1.9c1.3,0,2.6-1.1,3.5-2.5
		c0.6-1,0.9-2.1,1.1-3.2c0.3,0.3,0.6,0.6,1,0.9c0.6,0.4,1.4,0.7,2.3,0.8c0.1,1.8,1,3.4,3.1,3.4c2.3,0,3.8-1.7,5.4-3.5
		c0.9-1.2,2.3-2.8,3.2-4.3h0c-0.3,1.1-0.7,3-0.7,4.1c0,1.2,0.7,2.2,1.9,2.2c1.1,0,2.2-1,3.3-2c-0.1,0.5-0.2,1-0.2,1.7
		c0,1.2,0.7,2,1.9,2c1.2,0,2.8-1,4.1-2.2l0,0l-1.2,4.1c-1.3,0.5-2.4,1.2-3.4,1.9c-1.6,1.2-2.7,2.4-2.7,3.6c0,0.9,0.7,1.6,1.8,1.6
		c1.4,0,2.9-1.3,3.7-3.1c0.5-1.2,1-2.4,1.4-3.6c1.7-0.6,5-1.4,5.1-1.6C60.4,27.2,60.4,26.8,60.1,26.8z M11.3,14.6
		c1-2.1,2.4-4.6,4.3-4.6c0.9,0,1.5,0.5,1.5,1.2c0,1.3-1.7,2.7-3.3,3.8c-1.1,0.7-2.2,1.3-3.4,1.8C10.7,16,11,15.3,11.3,14.6z
		 M18.8,19.3c0.6,0,0.8,0.6,0.8,1.2c0,0.5-0.1,1-0.4,1.5c-0.1,0-0.1,0-0.2,0c-0.8,0-1.6-0.6-2.1-1.3C17.4,20,18.1,19.3,18.8,19.3z
		 M18.3,23.6c-0.7,1.2-1.7,2.3-2.5,2.3c-0.5,0-0.8-0.5-0.7-1.1c0.1-0.8,0.5-2,1.1-3c0.1-0.1,0.1-0.2,0.2-0.3
		c0.5,0.7,1.4,1.1,2.5,1.2C18.6,23.1,18.5,23.4,18.3,23.6z M37,18.8c0.4,0,0.7,0.3,0.7,0.8c0,1.4-1.5,2.3-3.2,2.5
		C34.6,20.8,35.7,18.8,37,18.8z M52.7,32.5c-0.7,1.2-1.7,2.2-2.7,2.2c-0.6,0-0.9-0.4-0.9-0.8c0-0.9,1.1-2,2.2-2.8
		c0.8-0.6,1.7-1.2,2.8-1.8C53.7,30.4,53.3,31.4,52.7,32.5z"/>
	<path d="M94.7,26c-0.4,0.3-0.8,0.6-1.3,0.6c-0.8,0-1.2-0.9-1.2-1.6c0-1.2,0.3-2.5,0.7-3.7c0.1-0.3,0.2-0.6,0.2-0.7
		c0-0.3-0.5-0.5-0.8-0.4c-0.6,0.6-1.2,1.2-1.8,2.1c-0.9,1.3-2.7,3.1-3.6,3.1c-0.5,0-0.6-0.4-0.6-0.8c0-1.8,0.5-3.4,1.1-5
		c0.1-0.2-0.4-0.7-0.8-0.7c-0.4,0-1.6,1.4-2.4,2.1c-0.6,0.5-1.1,1-1.6,1.3c0-0.1,0-0.2,0-0.3c0-1.7-0.8-3-1.8-3
		c-1.5,0-2.4,1.7-2.9,2.7c0,0,0,0,0,0.1L73.3,27l1.8-9.2c0.1-0.4-0.4-1.1-0.7-1.1c-0.4,0-0.8,0.3-0.8,0.7l-0.1,0.5
		c-0.6,1.2-1.4,2.4-2.3,3.6c-1,1.5-2.4,3.2-3.4,3.2c-0.6,0-0.9-0.8-0.9-1.8c0-1.3,0.2-2.9,0.5-4.2c0.2-0.9,0.5-1.7,0.8-2.6
		c0.1-0.5-0.4-0.7-0.6-0.7c-0.7,0.2-1.8,4.7-1.8,7.3c0,1.8,0.7,3.1,2.2,3.1c1.5,0,3.8-2.9,5-5.3h0l-1.4,8.3c0,0,0,0.1,0,0.1l-4,4.1
		c-1.7,1.7-3,3.1-3,5c0,1.1,0.6,1.9,2.1,1.9c3.5,0.1,5.7-8,6.4-11.2l1.9-2l2.4-2.6c-0.1,0.6-0.2,1.2-0.2,1.8c0,0.8,0.6,1.8,1.5,1.8
		c0.9,0,2.3-1.3,3-2.6c0.3-0.6,0.6-1.1,0.8-1.6c0.9-0.4,2-1.1,3.2-2.3l0,0c-0.2,0.9-0.3,2.1-0.3,3c0,1.2,0.8,2.1,1.9,2.1
		c1.4,0,2.8-1.6,4-2.7l0,0c-0.1,0.6,0,1.4,0,1.8c0.2,1.1,0.9,1.9,2.1,1.9c0.8,0,1.3-0.4,1.7-1.1C95,26.2,94.9,25.9,94.7,26z
		 M66.6,38.9c-0.8,0-1.1-0.5-1.1-0.9c0-1.5,1.5-2.9,2.9-4.4l2.7-2.8C70.2,33.8,68.4,38.9,66.6,38.9z M80.7,20c0.5,0,1,0.7,1,1.8
		c0,0.4,0,0.8-0.2,1.2c-0.2,0.1-0.4,0.1-0.5,0.1c-1,0-1.1-1.5-1.1-2.6C80.1,20.2,80.4,20,80.7,20z M80.7,24.7
		c-0.6,1-1.4,2.2-2.2,2.2c-0.4,0-0.5-0.4-0.5-0.8c0-1.2,0.6-2.8,1.1-3.9c0,0,0,0,0-0.1c0.3,0.9,0.8,1.6,1.8,1.7c0.1,0,0.2,0,0.3,0
		C81.1,24.1,80.9,24.4,80.7,24.7z"/>
</g>
</svg>
