<?xml version="1.0" encoding="iso-8859-1"?>
<!-- Generator: Adobe Illustrator 19.0.0, SVG Export Plug-In . SVG Version: 6.00 Build 0)  -->
<svg xmlns="http://www.w3.org/2000/svg" xmlns:xlink="http://www.w3.org/1999/xlink" version="1.1" id="Layer_1" x="0px" y="0px" viewBox="0 0 496 496" style="enable-background:new 0 0 496 496;" xml:space="preserve" width="512px" height="512px">
<g>
	<g>
		<g>
			<path d="M496,16V0H296c-22.056,0-40,17.944-40,40c0,22.056,17.944,40,40,40c8.816,0,16,7.184,16,16v30.312     c0,4.76-1.392,9.36-4.032,13.312l-5.248,7.872c-4.4,6.592-6.72,14.264-6.72,22.192V176c0,22.056,17.944,40,40,40     c22.056,0,40-17.944,40-40v-6.312c0-7.928-2.32-15.6-6.72-22.184l-5.248-7.872c-2.64-3.96-4.032-8.56-4.032-13.32V96     c0-8.816,7.176-16,16-16h120V64H392v-8c0-13.232-10.768-24-24-24c-4.416,0-8-3.584-8-8v-8H496z M360,176     c0,13.232-10.768,24-24,24s-24-10.768-24-24v-6.312c0-4.76,1.392-9.36,4.032-13.312l5.248-7.872     c4.4-6.592,6.72-14.264,6.72-22.192V96c0-5.856-1.696-11.272-4.448-16h24.896C345.696,84.728,344,90.144,344,96v30.312     c0,7.928,2.32,15.6,6.72,22.192l5.248,7.872c2.64,3.952,4.032,8.552,4.032,13.312V176z M368,48c4.416,0,8,3.584,8,8v8h-80     c-13.232,0-24-10.768-24-24s10.768-24,24-24h48v8C344,37.232,354.768,48,368,48z" fill="#00237e"/>
			<path d="M264,160c0-22.056-17.944-40-40-40H40c-22.056,0-40,17.944-40,40v336h136h8h296v-32.552c31.52-3.96,56-30.872,56-63.448     v-96H264V160z M16,160c0-13.232,10.768-24,24-24h184c13.232,0,24,10.768,24,24v24H16V160z M16,200h232v16H16V200z M16,232h232v72     h-36.904c-11.76-33.256-43.424-56-79.096-56c-46.32,0-84,37.68-84,84c0,25.624,11.952,49.8,32,65.696V400     c0,11.664,3.184,22.576,8.656,32H16V232z M193.872,304H80v71.632C69.816,363.504,64,348.096,64,332c0-37.496,30.504-68,68-68     C158.92,264,183.024,280.008,193.872,304z M136,480H16v-32h85.808c9.384,8.256,21.168,13.808,34.192,15.448V480z M424,480H152     v-16h272V480z M480,320v16h-16v16h16v48c0,26.472-21.528,48-48,48H144c-26.472,0-48-21.528-48-48v-48h352v-16H96v-16H480z" fill="#00237e"/>
		</g>
	</g>
</g>
<g>
</g>
<g>
</g>
<g>
</g>
<g>
</g>
<g>
</g>
<g>
</g>
<g>
</g>
<g>
</g>
<g>
</g>
<g>
</g>
<g>
</g>
<g>
</g>
<g>
</g>
<g>
</g>
<g>
</g>
</svg>
